<svg width="646" height="1246" fill="none" xmlns="http://www.w3.org/2000/svg"><path opacity=".05" d="M1040.4 149.227C778.84-56.926 423.986-71.663 156.643 247.831-110.6 567.308-6.242 881.598 255.32 1087.75c261.561 206.15 599.782 240.9 867.02-78.58 267.25-319.477 179.64-653.692-81.94-859.943zm-77.089-8.424c23.221 18.287 45.119 39.4 65.139 63.031-19.05 2.869-17.61 3.531-36.346 8.452-91.362 23.617-175.682 75.028-235.758 147.363-42.393 47.743-79.588 105.848-85.376 171.056-1.471 15.98-1.448 31.612-.218 47.043-32.672-32.852-66.49-65.112-97.748-99.502-30.247-33.856-58.982-71.973-73.872-113.295-17.024-49.185-15.12-102.722-1.394-153.816 15.568-57.915 59.357-105.29 116.793-126.871l.775-.33c121.475-45.163 229.498-36.773 348.091 56.755l-.086.114zM733.234 771.515c5.584 14.907 10.092 30.193 13.609 45.745 7.12 30.988-3.464 64.22-28.358 85.5-95.77 81.68-226.795 93.453-343.664 28.002-91.52-52.128-158.996-139.827-204.206-236.341-27.45-58.676-27.029-126.6.522-186.408l.468-.98c107.663 107.674 278.492 157.133 426.874 97.771 53.441 49.943 104.819 101.232 134.755 166.711zm-456.25-438.264c33.726-39.688 62.226-66.378 109.398-103.792-1.602 58.197 7.449 115.925 32.019 169.268 24.08 50.818 61.294 90.431 99.424 129.29 7.598 7.857 15.467 15.468 23.452 23.16-102.081 37.127-224.308 3.337-300.913-67.208l-.361-.341c-22.222-21.861-20.186-53.671-7.244-82.283 12.941-28.613 22.478-42.427 44.325-68.111l-.1.017zm32.217 746.739C206.33 998.881 125.99 888.466 122.039 732.77c14.176 23.2 28.841 46.218 44.682 68.84 124.358 185.679 339.801 321.03 565.839 216.57 6.268-2.84 12.274-6.05 18.295-9.15-3.944 30.12-8.286 37.46-16.157 67.53-11.874 45.68-47.469 83.27-94.161 95.55-107.873 28.26-223.423-7.04-331.351-92.22l.015.1zm692.439-166.002c-45.67 54.604-96.286 105.222-150.231 147.572.924-44.46 1.516-98.478-6.511-172.412-5.968-54.433-30.709-121.678-58.737-171.339-15.715-27.854-29.624-56.711-39.243-87.183-10.426-33.045-17.584-65.63-16.423-97.094 4.999-97.951 103.103-207.481 191.471-255.356 1.705-.985 3.526-1.89 5.231-2.875 80.973-42.937 180.393-4.551 209.623 79.187 54.43 156.019 34.54 356.674-135.08 559.484l-.1.016z" fill="url(#paint0_linear_2243_17941)"/><defs><linearGradient id="paint0_linear_2243_17941" x1="655.6" y1="622.345" x2="150.201" y2="926.982" gradientUnits="userSpaceOnUse"><stop stop-color="#DFE4DB"/><stop offset="1" stop-color="#DFE4DB" stop-opacity="0"/></linearGradient></defs></svg>