<svg width="40" height="40" fill="none" xmlns="http://www.w3.org/2000/svg"><path d="M20.599 0c5.518 0 10.015 2.17 13.796 6.094A19.987 19.987 0 0139.66 16.42c.97 5.577-.102 10.741-3.577 15.337-2.402 3.201-5.468 5.525-9.148 6.97-1.89.723-3.832 1.085-5.876 1.24-2.861.155-5.672-.258-8.38-1.29-3.015-1.136-5.622-2.996-7.768-5.371a19.18 19.18 0 01-3.475-5.267C.311 25.458-.046 22.721.005 19.933c.102-4.493 1.686-8.418 4.394-11.98 2.044-2.686 4.65-4.7 7.665-6.197A16.35 16.35 0 0117.481.207C18.503.104 19.576.052 20.598 0zm-.614 28.763c-1.333 4.692-4.873 4.23-5.962 3.964a6.768 6.768 0 00-.272-.143l-.032.058c-.013-.005-.02-.006-.02-.006l.007.028a20.32 20.32 0 01-.875 1.469l.137.218c.885.71 2.597 1.217 4.485 1.462 1.077.24 2.459.313 4.231.088a11.352 11.352 0 001.587-.26 31.485 31.485 0 003.05-.785c-.047-.007-5.776-.899-6.336-6.093zM35.01 25.87c-.511-3.047-3.629-5.577-7.308-4.906.153.516.357.982.51 1.498.512 1.342 1.023 2.633 1.483 3.976.102.258.153.568.154.877 0 .517-.46.672-.92.827-.41.154-.665 0-.87-.362a25.224 25.224 0 01-.613-1.187c-.715-1.756-1.379-3.512-2.145-5.37-1.482 1.394-2.556 2.994-2.913 4.957-.205.98-.052 1.91.204 2.891.306 1.033.971 1.757 1.738 2.428 2.3 2.168 6.285 2.478 8.789.05 1.635-1.548 2.248-3.459 1.89-5.679zm-23.405-2.789c-1.737-2.736-3.985-3.614-6.949-3.201-.46.052-.87.155-1.329.207v.361c.204 1.291.358 2.53.613 3.821.665 2.84 1.942 5.32 4.19 7.178l1.994 1.55c.766-.879 1.481-1.705 1.992-2.686.358-.672.716-1.395.818-2.17.205-1.187 0-2.426-.511-3.51-.256-.517-.511-1.085-.818-1.55zm6.899-15.646c-1.533-1.085-3.322-.981-4.701.155-.511.465-1.022.981-1.431 1.498-.664.878-1.278 1.807-1.89 2.684-.614.93-1.125 1.911-1.431 3.047-.154.568-.052 1.033.204 1.497.306.568.715.982 1.226 1.343.971.775 2.095 1.188 3.27 1.6.87.31 1.738.62 2.606.982.562.207.767.62.716 1.188-.051.62-.102 1.24-.256 1.807-.357 1.291-.817 2.582-1.277 3.822-.204.62-.408 1.188-.408 1.859 0 .465.204.723.613.878.664.258 1.38 0 1.788-.569.256-.36.46-.774.664-1.187.511-1.033.97-2.118 1.43-3.15.512-1.24.921-2.479 1.177-3.822.153-.774-.103-1.342-.614-1.91a6.19 6.19 0 00-1.788-1.24c-.664-.36-1.278-.67-1.891-1.084-.46-.31-.869-.723-1.329-1.084 1.125-1.446 2.147-2.788 3.271-4.183l.179.21c.23.254.46.487.69.72.766.825 1.482 1.703 2.248 2.581.562.62 1.278.982 2.147 1.085.817.103 1.635.258 2.401.31.869.051 1.788.155 2.708.103.97 0 1.482-.93 1.073-1.756-.255-.516-.715-.62-1.174-.722-.767-.155-1.534-.26-2.3-.26-1.125 0-2.096-.412-2.913-1.29-1.073-1.136-2.095-2.272-3.168-3.408a14.47 14.47 0 00-1.84-1.704zm10.834-2.737c0 .413.05.774.101 1.084.103.981-.102 1.911-.613 2.686-.767 1.136-1.89 1.756-3.168 2.117-.255.103-.563.104-.87.516.614.104 1.126.207 1.637.258.92.155 1.84.259 2.76.465.868.207 1.635.62 2.197 1.343 1.021 1.343.561 3.924-1.584 4.234-.511.052-.972.103-1.483.206-.562.104-1.124.208-1.788.31.102.259.153.517.255.775.307 0 .563 0 .87-.103a8.56 8.56 0 012.81 0c2.708.516 4.803 1.808 5.876 4.441.05.155.153.31.256.464h.153c.102-.671.306-1.29.357-1.962.154-2.169.103-4.286-.51-6.403-1.022-3.615-2.913-6.713-5.672-9.243a9.817 9.817 0 00-1.584-1.188zM17.123 2.427C14.005 2.169 3.99 6.868 3.275 16.524c.46 1.601 3.168.413 3.372-.516.563-1.343 5.008-14.458 12.52-10.586.003-.025.347-2.79-2.044-2.995zm1.993 12.238a8.928 8.928 0 00-.767.672c.46.207.819.412 1.33.62l-.327-.64a12.71 12.71 0 01-.236-.652zm5.366-12.238c-1.073-.155-2.555.259-3.27 1.55-.562 1.032-.46 2.891.408 3.82 1.022 1.085 2.198 1.24 3.526.879.818-.207 1.534-.672 1.84-1.55.153-.465.205-.98.307-1.497l-.005-.14c-.048-.944-.452-1.71-1.171-2.339-.46-.413-1.022-.62-1.635-.723z" fill="#FFF1DA" fill-opacity=".6"/></svg>