<svg width="50" height="50" fill="none" xmlns="http://www.w3.org/2000/svg"><g clip-path="url(#clip0_3064_10575)" fill-rule="evenodd" clip-rule="evenodd"><path d="M49.861 15.597c0-.596 0-1.191-.002-1.787a67.97 67.97 0 00-.022-1.504c-.03-1.093-.095-2.194-.289-3.274a11.065 11.065 0 00-1.026-3.115 10.47 10.47 0 00-4.579-4.578A11.09 11.09 0 0040.831.313c-1.08-.194-2.183-.259-3.276-.288a68.091 68.091 0 00-1.504-.022C35.456 0 34.861 0 34.264 0H15.597c-.596 0-1.191 0-1.787.003a68.57 68.57 0 00-1.504.022c-1.093.03-2.195.094-3.276.29A10.984 10.984 0 005.918 1.34 10.476 10.476 0 001.34 5.918C.832 6.916.51 7.936.313 9.033c-.194 1.08-.259 2.183-.288 3.274a62.94 62.94 0 00-.022 1.505C0 14.406 0 15.002 0 15.597v18.666c0 .596 0 1.191.003 1.787.003.501.008 1.003.022 1.504.029 1.093.094 2.194.288 3.274a11.1 11.1 0 001.026 3.115 10.469 10.469 0 004.58 4.578c.995.507 2.016.828 3.111 1.026 1.08.194 2.183.26 3.276.288.502.014 1.003.02 1.504.022.596.005 1.191.003 1.787.003h18.666c.596 0 1.191 0 1.787-.003a67.97 67.97 0 001.504-.022c1.093-.029 2.195-.094 3.276-.288a11.032 11.032 0 003.112-1.026 10.474 10.474 0 004.579-4.578c.507-.997.83-2.018 1.026-3.115.194-1.08.26-2.183.288-3.274.014-.501.02-1.003.022-1.504.005-.596.003-1.191.003-1.787V15.597h.002z" fill="url(#paint0_linear_3064_10575)"/><path d="M35.25 7.618c-.121.01-1.192.2-1.32.227l-14.82 2.99-.006.002c-.387.081-.69.219-.924.415-.282.237-.439.572-.499.963a3.39 3.39 0 00-.033.501v18.549c0 .433-.034.854-.328 1.213-.294.359-.657.467-1.082.553l-.968.195c-1.224.246-2.02.414-2.742.694-.69.267-1.207.608-1.618 1.04-.816.855-1.147 2.014-1.033 3.1a3.881 3.881 0 001.23 2.468c.483.443 1.087.78 1.799.922.738.148 1.525.097 2.674-.136.612-.123 1.186-.315 1.732-.638a4.35 4.35 0 001.364-1.262 4.61 4.61 0 00.726-1.71c.133-.633.165-1.205.165-1.837V19.78c0-.862.243-1.089.939-1.258 0 0 12.318-2.484 12.893-2.597.802-.154 1.18.075 1.18.916v10.982c0 .435-.004.875-.3 1.235-.294.359-.657.467-1.082.553l-.969.195c-1.224.247-2.02.414-2.742.694-.69.267-1.206.608-1.618 1.04a3.929 3.929 0 00-1.062 3.1 3.918 3.918 0 001.26 2.468 3.73 3.73 0 001.798.914c.738.148 1.525.096 2.675-.136.612-.123 1.185-.307 1.731-.63a4.35 4.35 0 001.364-1.261c.363-.52.597-1.097.726-1.711.133-.633.139-1.205.139-1.837V8.928c.002-.853-.448-1.38-1.25-1.31z" fill="#fff"/></g><defs><linearGradient id="paint0_linear_3064_10575" x1="24.931" y1="49.668" x2="24.931" y2="1.075" gradientUnits="userSpaceOnUse"><stop stop-color="#FA233B"/><stop offset="1" stop-color="#FB5C74"/></linearGradient><clipPath id="clip0_3064_10575"><path fill="#fff" d="M0 0h50v50H0z"/></clipPath></defs></svg>