<svg width="65" height="54" fill="none" xmlns="http://www.w3.org/2000/svg"><path opacity=".1" d="M38.73-11.301C17.95-20.585-5.379-15.668-16.882 9.886-28.378 35.438-15.825 54.48 4.956 63.763c20.782 9.284 43.396 5.965 54.893-19.587C71.345 18.624 59.515-2.01 38.73-11.3zm-5.163.723a31.634 31.634 0 015.39 3.084c-1.185.506-1.08.526-2.207 1.162-5.502 3.078-10.037 7.876-12.612 13.654-1.877 3.86-3.227 8.317-2.405 12.723.197 1.08.486 2.113.85 3.113-2.727-1.629-5.517-3.2-8.18-4.954-2.587-1.736-5.154-3.778-6.88-6.262C5.513 8.974 4.653 5.404 4.607 1.8 4.555-2.288 6.53-6.146 9.866-8.526l.044-.034c7.064-5.002 14.236-6.24 23.66-2.027l-.004.009zM30.2 34.928a24.98 24.98 0 011.725 2.797c1.031 1.93.954 4.303-.273 6.122-4.722 6.989-13.02 9.942-21.815 7.556-6.904-1.926-12.9-6.603-17.61-12.231-2.86-3.423-4.08-7.92-3.39-12.33l.013-.072c8.973 5.33 20.981 5.763 29.532-.624 4.39 2.414 8.67 4.95 11.818 8.782zM-7.494 13.535c1.463-3.184 2.824-5.42 5.202-8.677.965 3.873 2.614 7.539 5.19 10.657 2.498 2.959 5.643 4.96 8.835 6.895.637.393 1.289.765 1.949 1.141C7.73 27.7-.832 27.495-7.105 24.104l-.03-.016c-1.845-1.076-2.297-3.213-1.981-5.319.315-2.106.68-3.177 1.629-5.237l-.007.002zm15.809 48.82C.14 58.702-7.107 52.738-10.223 42.513a92.91 92.91 0 004.167 3.808c11.49 10.208 27.975 15.578 40.744 4.922.355-.293.686-.604 1.02-.91.297 2.057.15 2.614.191 4.733.067 3.215-1.555 6.291-4.363 7.878-6.49 3.659-14.647 3.243-23.224-.595l.003.006zM50.258 39.89c-1.965 4.367-4.324 8.553-7.051 12.247-.757-2.953-1.71-6.534-3.59-11.287-1.387-3.499-4.23-7.532-6.963-10.35-1.533-1.58-2.967-3.256-4.151-5.11-1.285-2.011-2.348-4.046-2.85-6.145-1.475-6.557 2.888-15.425 7.75-20.056.093-.094.194-.184.287-.277C38.163-5.271 45.328-4.385 48.765.665c6.402 9.408 8.795 23 1.5 39.221l-.007.003z" fill="#FFF1DA"/></svg>