<svg width="20" height="20" fill="none" xmlns="http://www.w3.org/2000/svg"><path d="M13.39 13.46v.285a.375.375 0 01-.375.375h-9.75a.375.375 0 01-.375-.375V7.37m0 0l5.006-4.29a.373.373 0 01.488 0l5.006 4.29m-10.5 0l-.396.258a.375.375 0 01-.505-.089l-.653-.872a.375.375 0 01.062-.515L7.902.815a.375.375 0 01.476 0L11.32 3.23m2.07 4.141v1.65m0-1.65l.284.224c.159.126.39.102.52-.054l.724-.87a.375.375 0 00-.05-.53L13.39 4.928m-2.07-1.699V1.475c0-.207.168-.375.375-.375h1.32c.207 0 .375.168.375.375v3.453m-2.07-1.699l2.07 1.699m4.77 6.312v-1.005a.375.375 0 00-.375-.375h-6.45a.375.375 0 00-.375.375v2.01c0 .207.168.375.375.375h6.45a.375.375 0 00.375-.375V11.24zm0 0h.585c.207 0 .375.168.375.375v1.202a.375.375 0 01-.273.36l-3.327.943c-.16.06-.528.3-.72.78m0 0c-.288 0-.504.36-.6.84-.12.6-1.08 3.6.6 3.6 1.344 0 .84-2.64.6-3.6-.101-.405-.312-.84-.6-.84z" stroke="#1B1D25" stroke-width=".6" stroke-linecap="round" stroke-linejoin="round"/><path d="M5.455 6.98c.418.621.23 1.056 0 1.553-.289.621-.045 1.068.096 1.242.418.518.234.967 0 1.243-.352.414-.096 1.035 0 1.242m2.544-5.28c.417.621.23 1.056 0 1.553-.289.621-.045 1.068.096 1.242.418.518.234.967 0 1.243-.352.414-.096 1.035 0 1.242m2.544-5.28c.418.621.313 1.103 0 1.553-.254.367-.134.367 0 .607" stroke="#1B1D25" stroke-width=".6" stroke-linecap="round" stroke-linejoin="round"/></svg>