<svg width="604" height="201" fill="none" xmlns="http://www.w3.org/2000/svg"><path opacity=".05" d="M-169.26 144.827C98.514 264.45 399.093 201.099 547.308-128.179c148.135-329.243-13.615-574.584-281.388-694.207-267.773-119.623-559.162-76.868-707.297 252.375s4.308 595.135 272.117 714.838zm66.536-9.315c-23.77-10.607-47.102-23.903-69.454-39.747 15.272-6.518 13.907-6.773 28.43-14.972C-72.846 41.138-14.418-20.682 18.76-95.135c24.193-49.728 41.583-107.169 30.997-163.941-2.55-13.924-6.27-27.231-10.95-40.11 35.128 20.99 71.076 41.23 105.384 63.832 33.336 22.364 66.414 48.68 88.66 80.686 25.893 38.248 36.969 84.25 37.569 130.699.672 52.653-24.778 102.366-67.758 133.031l-.57.446c-91.014 64.446-183.439 80.407-304.861 26.12l.045-.116zm43.362-586.354c-8.203-11.501-15.594-23.556-22.22-36.048-13.294-24.868-12.297-55.433 3.508-78.881 60.851-90.047 167.762-128.099 281.097-97.356 88.96 24.819 166.207 85.075 226.898 157.6 36.868 44.1 52.59 102.037 43.678 158.865l-.16.935c-115.62-68.672-270.347-74.253-380.527 8.04C36.35-368.79-18.803-401.48-59.362-450.842zm485.703 275.656c-18.845 41.014-36.388 69.84-67.028 111.793-12.431-49.906-33.671-97.134-66.866-137.307-32.187-38.129-72.718-63.905-113.837-88.844-8.221-5.066-16.61-9.864-25.116-14.707 76.678-53.453 187.007-50.82 267.836-7.126l.384.213c23.778 13.864 29.602 41.391 25.538 68.527-4.064 27.135-8.779 40.94-20.991 67.487l.08-.036zM222.646-804.252c105.32 47.073 198.714 123.923 238.869 255.675-17.36-16.725-35.084-33.192-53.701-49.069-148.058-131.533-360.463-200.72-524.988-63.415-4.573 3.765-8.844 7.778-13.149 11.712-3.827-26.498-1.928-33.675-2.456-60.971-.868-41.438 20.036-81.067 56.223-101.511 83.623-47.147 188.719-41.798 299.237 7.659l-.035-.08zm-540.443 289.484c25.316-56.272 55.714-110.205 90.856-157.81 9.747 38.057 22.035 84.19 46.253 145.439 17.879 45.08 54.506 97.058 89.725 133.356 19.749 20.361 38.223 41.961 53.487 65.855 16.55 25.912 30.254 52.133 36.728 79.177C18.247-164.262-37.966-49.998-100.62 9.676c-1.194 1.204-2.505 2.364-3.699 3.567-57.635 53.888-149.955 42.462-194.242-22.602-82.493-121.23-113.325-296.372-19.316-505.373l.08-.036z" fill="url(#paint0_linear_2243_17945)"/><defs><linearGradient id="paint0_linear_2243_17945" x1="289.504" y1="76.501" x2="-39.996" y2="196.001" gradientUnits="userSpaceOnUse"><stop stop-color="#DFE4DB"/><stop offset="1" stop-color="#DFE4DB" stop-opacity="0"/></linearGradient></defs></svg>