<svg width="855" height="821" fill="none" xmlns="http://www.w3.org/2000/svg"><path opacity=".05" d="M1059.59-191.66c-217.808-242.679-551.742-314.382-851.295-47.055C-91.161 28.612-37.931 350.982 179.873 593.66c217.804 242.679 533.082 331.139 832.537 63.812 299.46-267.327 264.98-606.356 47.18-849.132zm-71.792-20.654c19.342 21.531 37.022 45.594 52.542 71.8-18.45-.292-17.19.585-35.64 2.339-89.959 8.183-177.276 44.522-244.668 105.118-47.077 39.554-90.735 90.018-105.679 152.466-3.711 15.295-5.958 30.493-7.032 45.691-26.175-37.215-53.523-74.04-78.136-112.523-23.734-37.8-45.417-79.496-53.523-122.07-8.986-50.562.586-102.293 20.999-149.738 23.148-53.777 71.494-92.746 129.022-104.436l.781-.195c121.599-24.258 222.688 1.364 321.432 111.451l-.098.097zM678.38 363.549c3.125 15.393 5.176 30.98 6.251 46.665 2.246 31.273-12.6 61.864-39.264 78.523-102.553 63.909-228.352 54.166-329.538-28.35-79.112-65.468-130.291-161.624-159.104-262.748-17.483-61.473-7.228-127.428 27.543-181.108l.586-.877c86.34 122.07 240.952 197.767 390.093 164.059C618.313 236.9 659.53 295.061 678.38 363.549zM309.871-136.227c37.701-33.124 68.565-54.459 118.669-83.199-9.962 56.31-9.767 113.887 5.763 169.71 15.432 53.29 44.928 97.812 75.401 141.75 6.056 8.865 12.404 17.535 18.85 26.303C426.489 137.919 315.634 85.311 253.32 4.353l-.292-.39c-17.874-24.842-11.33-55.433 5.078-81.152 16.409-25.72 27.446-37.605 51.863-59.038h-.098zM232.028 594.83c-85.656-95.474-145.723-215.791-126.873-367.769 10.06 24.842 20.609 49.587 32.329 74.138 90.833 200.592 275.234 366.989 504.465 302.009 6.349-1.754 12.502-3.897 18.655-5.943-8.107 28.642-13.283 35.072-25.101 63.032-17.874 42.476-57.039 73.262-103.042 77.646-106.265 10.034-210.576-42.963-300.433-143.211v.098zm679.881-49.394c-51.179 45.692-106.461 86.706-163.695 119.148 7.325-43.061 15.725-95.474 18.85-168.638 2.247-53.875-11.427-123.239-30.766-176.042-10.841-29.616-19.827-59.915-24.515-91.09-5.079-33.805-7.13-66.637-1.465-97.032C729.266 37.379 838.07-53.223 928.708-85.47c1.758-.682 3.614-1.267 5.372-1.948 82.92-28.643 171.51 24.745 187.04 110.866 28.91 160.454-19.05 352.279-209.114 521.988h-.097z" fill="url(#paint0_linear_2243_17944)"/><defs><linearGradient id="paint0_linear_2243_17944" x1="626.5" y1="206" x2="101.5" y2="415" gradientUnits="userSpaceOnUse"><stop stop-color="#DFE4DB"/><stop offset="1" stop-color="#DFE4DB" stop-opacity="0"/></linearGradient></defs></svg>