<svg width="400" height="79" fill="none" xmlns="http://www.w3.org/2000/svg"><g clip-path="url(#clip0_2383_19176)"><mask id="a" style="mask-type:alpha" maskUnits="userSpaceOnUse" x="5" y="-126" width="390" height="192"><path d="M33.337 10.536c-13.484 0-27.901 7.04-27.901 26.804 0 16.974 10.95 27.94 27.901 27.94 16.952 0 27.902-10.966 27.902-27.94 0-19.764-14.41-26.804-27.902-26.804zm-2.267 3.36c10.899 0 21.894 6.737 21.894 23.444 0 23.495-13.292 24.578-17.367 24.578-10.876 0-21.893-7.953-21.893-24.578 0-21.826 12.143-23.443 17.366-23.443zm72.06 20.588c3.104-1.714 5.964-5.787 5.964-11.87 0-8.013-7.483-12.07-22.242-12.07-10.031 0-14.38 2.53-15.15 3.041a.83.83 0 00-.282 1.061l1.393 2.79c.118.237.348.4.607.445a.838.838 0 00.711-.23c2.964-2.946 7.068-3.828 11.247-3.74 12.995 0 15.092 5.12 15.388 7.642.289 2.485-.592 5.163-2.37 7.166-1.682 1.892-3.964 2.975-6.261 2.975h-6.009a.83.83 0 00-.83.831v2.441c0 .46.371.83.83.83h4.023c8.713 0 12.944 3.851 12.944 11.767 0 7.916-5.58 14.378-16.211 14.378-4.979-.149-10.01-1.187-14.536-4.392-1.186-.846-3.712-3.413-4.927-4.645l-.482-.49a.83.83 0 00-1.222.06l-3.105 3.027-.059.111a.824.824 0 00.156.957c.296.297 5.616 4.504 10.424 6.291 2.823 1.047 7.32 2.441 13.729 2.441 11.824 0 25.635-4.644 25.635-17.738 0-7.894-4.32-11.091-9.358-13.057l-.007-.022zm99.392-23.947l-23.694.096h-.118a.844.844 0 00-.697.831v52.97a.8.8 0 00.297.63l.333.245.282-.044 6.668-.015h.118a.85.85 0 00.697-.831l-.112-24.46h17.36c8.52 0 17.714-5.764 17.714-15.082 0-9.318-9.483-14.34-18.848-14.34zm1.415 25.32h-17.641V13.155h15.122c3.075 0 6.09 1.247 8.261 3.428a11.742 11.742 0 013.423 8.294c0 4.948-1.6 10.839-9.165 10.98zm69.898-25.107a.8.8 0 00-.615-.192l-6.594.363h-.082a.843.843 0 00-.689.831v7.79l-29.072 37.435V11.389l-.03-.409-.259-.222a.8.8 0 00-.615-.193l-6.594.364h-.081a.843.843 0 00-.689.83v52.688l.029.408.26.223a.8.8 0 00.585.193l5.705-.045c.496 0 .948-.23 1.252-.615l29.509-37.844V64.44l.03.408.259.222c.149.127.341.2.541.2h.045l6.571-.029.393-.089.43-.43V11.396l-.03-.408-.259-.223v-.014zm92.528-.213c-13.484 0-27.901 7.04-27.901 26.803 0 16.975 10.95 27.94 27.901 27.94 16.952 0 27.902-10.965 27.902-27.94 0-19.763-14.41-26.803-27.902-26.803zm-2.259 3.36c10.898 0 21.893 6.737 21.893 23.443 0 23.496-13.292 24.579-17.366 24.579-10.877 0-21.894-7.953-21.894-24.578 0-21.826 12.143-23.444 17.367-23.444zm-218.908-2.195a2.09 2.09 0 00-1.86-1.172h-.037a2.1 2.1 0 00-1.933 1.261l-1.86 4.303-13.329 29.98a30.882 30.882 0 01-5.63-1.366l-1.297 2.67a32.604 32.604 0 005.364 2.22l-6.786 14.777a.918.918 0 00-.015.63.941.941 0 00.437.46s3.289.038 3.378 0a.894.894 0 00.452-.437l6.416-14.474c.697.163 2.623.467 3.534.527 2.468.163 4.883-.045 7.535-.475 3.06-.556 6.35-2.07 9.491-1.966.43 0 .867.022 1.297.044 2.504.164 4.712 1.722 5.749 4.007l5.542 12.278a.83.83 0 00.548.46c.244.059 8.654.03 8.654.03a.83.83 0 00.259-1.01l-25.916-52.747h.007zm3.601 30.44c-3.549.407-6.757 1.84-10.062 3.033-3.104.995-5.001 1.358-8.349 1.173l11.306-25.966 9.505 21.537c-.8.044-1.608.118-2.4.222zm180.414-31.636l-6.949.423a.829.829 0 00-.697.816v22.672c-2.497.215-4.386.505-6.653 1.15-3.438.98-6.327 1.67-10.106 2.767-3.874 1.24-8.164 1.499-12.313.935v-27.88a.802.802 0 00-.297-.63l-.333-.238-6.957.416a.828.828 0 00-.689.816V64.44a.82.82 0 00.289.63l.333.245 6.957-.193a.828.828 0 00.689-.816V43.282c.934.238 1.875.446 2.838.616 3.49.638 7.268.482 10.906-.104 3.06-.556 6.038-1.743 9.179-1.632.349 0 .697.015 1.053.03 2.874.156 5.104 2.166 5.104 5.052v17.204a.82.82 0 00.289.63l.334.246 6.957.014a.827.827 0 00.689-.816V11.397l-.03-.408-.593-.468v-.015zM227.18-108.478c-16.677-18.653-42.246-24.165-65.182-3.617-22.929 20.548-18.853 45.327-2.176 63.98 16.677 18.654 40.817 25.453 63.745 4.905 22.929-20.548 20.289-46.607 3.613-65.268zm-5.497-1.588a34.827 34.827 0 014.023 5.519c-1.413-.022-1.316.045-2.729.18-6.888.629-13.574 3.422-18.734 8.08-3.604 3.04-6.947 6.92-8.091 11.72a21.34 21.34 0 00-.539 3.511c-2.004-2.86-4.098-5.69-5.982-8.649-1.818-2.905-3.478-6.11-4.099-9.383-.688-3.886.045-7.862 1.608-11.509a13.734 13.734 0 019.879-8.028l.06-.015c9.311-1.864 17.051.105 24.611 8.567l-.007.007zm-23.692 44.264a27.38 27.38 0 01.479 3.587c.172 2.404-.965 4.755-3.006 6.035-7.853 4.913-17.485 4.164-25.232-2.179-6.058-5.032-9.976-12.423-12.183-20.196-1.338-4.725-.553-9.794 2.109-13.92l.045-.068c6.611 9.383 18.449 15.201 29.869 12.61 3.32 4.396 6.476 8.867 7.919 14.131zm-28.215-38.415c2.886-2.546 5.249-4.186 9.086-6.395-.763 4.328-.748 8.754.441 13.044 1.182 4.097 3.44 7.519 5.773 10.896.464.681.95 1.348 1.444 2.022-7.815 1.505-16.303-2.539-21.074-8.761l-.023-.03c-1.368-1.91-.867-4.261.389-6.238 1.256-1.977 2.101-2.891 3.971-4.538h-.007zm-5.961 56.192c-6.558-7.338-11.157-16.586-9.714-28.268.77 1.91 1.578 3.811 2.475 5.698 6.955 15.419 21.074 28.209 38.626 23.214.486-.135.957-.3 1.428-.457-.62 2.202-1.017 2.696-1.922 4.845-1.368 3.265-4.367 5.632-7.889 5.969-8.137.77-16.124-3.303-23.004-11.008v.007zm52.057-3.796c-3.918 3.512-8.151 6.664-12.533 9.158.56-3.31 1.203-7.339 1.443-12.962.172-4.142-.875-9.473-2.356-13.532-.83-2.276-1.518-4.605-1.877-7.001-.389-2.599-.546-5.122-.112-7.459 1.451-7.256 9.782-14.22 16.722-16.699.134-.052.276-.097.411-.149 6.349-2.202 13.132 1.901 14.321 8.521 2.214 12.334-1.458 27.078-16.011 40.123h-.008z" fill="#FDE7D1"/></mask><g mask="url(#a)"><path fill="#1B1D25" d="M-17.86-467.857h453.571V78.572H-17.86z"/></g></g><defs><clipPath id="clip0_2383_19176"><path fill="#fff" d="M0 0h400v79H0z"/></clipPath></defs></svg>