<svg width="18" height="26" fill="none" xmlns="http://www.w3.org/2000/svg"><path d="M16.05 2.6a1.21 1.21 0 01-.87-.36 1.21 1.21 0 01-.362-.87c.001-.17.033-.329.096-.477a1.26 1.26 0 01.658-.658c.15-.065.31-.097.478-.097a1.232 1.232 0 011.136 1.71 1.237 1.237 0 01-1.136.753zm0-.295a.913.913 0 00.472-.125.955.955 0 00.337-.339.907.907 0 00.127-.472A.933.933 0 0015.24.9a.907.907 0 00-.125.47c0 .173.042.33.125.472a.973.973 0 00.339.339.92.92 0 00.471.125zm-.431-.381V.79h.575a.328.328 0 01.153.038.35.35 0 01.14.118.339.339 0 01.059.203.364.364 0 01-.055.204.423.423 0 01-.132.129l.233.442h-.275l-.201-.385h-.248v.385h-.25zm.25-.571h.232c.034.001.07-.015.11-.05.04-.033.06-.084.06-.154 0-.069-.021-.115-.062-.14a.2.2 0 00-.104-.037h-.237v.38z" fill="#FFF1DA" fill-opacity=".6"/><path d="M7.86 1.403c2.506 0 4.35 1.259 5.587 3.345 1.248 2.104 1.871 5.048 1.871 8.346 0 3.297-.623 6.241-1.87 8.345-1.238 2.087-3.082 3.344-5.588 3.344-2.505 0-4.349-1.258-5.586-3.344-1.247-2.104-1.87-5.048-1.87-8.345 0-3.298.623-6.242 1.87-8.346 1.237-2.086 3.08-3.345 5.586-3.345z" stroke="#FFF1DA" stroke-opacity=".6" stroke-width=".806"/><path d="M5.04 15.11s.402-1.613 2.82-1.714c2.42-.1 2.823-1.713 2.823-1.713" stroke="#FFDF58" stroke-width=".726"/><path d="M4.672 12.016V5.563h1.061L7.37 9.73c.04.098.088.223.143.373.058.147.115.3.173.459.06.155.114.298.16.428a35.144 35.144 0 01.33-.887l.142-.373L9.93 5.563h1.065v6.453h-.766V8.274c0-.23.003-.488.009-.77l.017-.85-.342.936c-.104.283-.19.511-.26.684l-1.498 3.742h-.641L6.006 8.274a36.06 36.06 0 01-.251-.645 156.82 156.82 0 00-.338-.879c.009.266.014.531.017.797.006.265.009.508.009.727v3.742h-.77zm0 2.558v6.452h1.061l1.637-4.165c.04-.099.088-.223.143-.373.058-.147.115-.3.173-.459.06-.156.114-.299.16-.428a35.144 35.144 0 00.33.887l.142.373 1.611 4.165h1.065v-6.452h-.766v3.742c0 .23.003.488.009.77l.017.85L9.912 19c-.104-.283-.19-.511-.26-.684l-1.498-3.742h-.641l-1.507 3.742c-.067.164-.15.38-.251.645l-.338.879c.009-.266.014-.531.017-.797.006-.265.009-.508.009-.727v-3.742h-.77z" fill="#FFF1DA" fill-opacity=".6"/></svg>