<svg width="112" height="22" fill="none" xmlns="http://www.w3.org/2000/svg"><g clip-path="url(#clip0_2515_2843)"><mask id="a" style="mask-type:alpha" maskUnits="userSpaceOnUse" x="1" y="-35" width="110" height="54"><path d="M9.336 2.934c-3.776 0-7.813 1.96-7.813 7.465 0 4.726 3.067 7.78 7.813 7.78 4.746 0 7.812-3.054 7.812-7.78 0-5.504-4.034-7.465-7.812-7.465zm-.635.936c3.052 0 6.13 1.876 6.13 6.528 0 6.543-3.721 6.845-4.862 6.845-3.046 0-6.13-2.215-6.13-6.844 0-6.079 3.4-6.529 4.862-6.529zm20.177 5.733c.869-.477 1.67-1.611 1.67-3.306 0-2.23-2.095-3.36-6.228-3.36-2.809 0-4.026.704-4.242.846a.23.23 0 00-.079.296l.39.776a.234.234 0 00.17.124.236.236 0 00.2-.064c.83-.82 1.978-1.066 3.148-1.04 3.639 0 4.226 1.425 4.31 2.127.08.692-.167 1.438-.665 1.996-.47.527-1.11.828-1.753.828h-1.682a.231.231 0 00-.233.232v.68c0 .127.104.23.233.23h1.126c2.44 0 3.624 1.073 3.624 3.277 0 2.205-1.562 4.004-4.539 4.004-1.394-.041-2.802-.33-4.07-1.223-.332-.235-1.039-.95-1.38-1.293l-.134-.136a.233.233 0 00-.342.016l-.87.843-.016.031a.229.229 0 00.043.267c.083.082 1.573 1.254 2.92 1.751.79.292 2.049.68 3.843.68 3.311 0 7.178-1.293 7.178-4.94 0-2.198-1.21-3.088-2.62-3.636l-.002-.006zm27.83-6.669l-6.635.027h-.033a.235.235 0 00-.195.231v14.752c0 .068.03.132.083.175l.094.068.078-.012 1.867-.004h.034a.237.237 0 00.195-.232l-.032-6.811h4.861c2.386 0 4.96-1.605 4.96-4.2s-2.655-3.994-5.277-3.994zm.396 7.051h-4.94V3.664h4.234a3.26 3.26 0 013.272 3.264c0 1.378-.448 3.018-2.566 3.057zm19.571-6.991a.225.225 0 00-.172-.054l-1.846.101h-.023a.235.235 0 00-.193.232v2.169l-8.14 10.425V3.17l-.009-.113-.072-.062a.225.225 0 00-.172-.054l-1.847.101h-.022a.235.235 0 00-.193.232v14.672l.008.114.073.062a.22.22 0 00.163.054l1.598-.013a.445.445 0 00.35-.171l8.263-10.539v10.491l.008.114.073.062a.236.236 0 00.151.056h.013l1.84-.009.11-.024.12-.12V3.174l-.008-.114-.073-.062v-.004zm25.908-.06c-3.775 0-7.812 1.96-7.812 7.465 0 4.727 3.066 7.78 7.812 7.78 4.747 0 7.813-3.053 7.813-7.78 0-5.504-4.035-7.465-7.813-7.465zm-.632.936c3.051 0 6.13 1.876 6.13 6.529 0 6.543-3.722 6.844-4.863 6.844-3.045 0-6.13-2.214-6.13-6.844 0-6.079 3.4-6.529 4.863-6.529zm-61.295-.611a.585.585 0 00-.52-.327h-.01a.588.588 0 00-.542.352l-.52 1.198-3.733 8.349a8.683 8.683 0 01-1.577-.38l-.362.743a9.14 9.14 0 001.501.618l-1.9 4.115a.256.256 0 00-.004.176c.02.051.073.105.122.128 0 0 .922.01.946 0a.25.25 0 00.127-.122l1.797-4.03c.194.045.734.13.989.146.69.046 1.367-.012 2.11-.132.857-.155 1.778-.577 2.657-.548.12 0 .243.007.363.013a1.91 1.91 0 011.61 1.115l1.552 3.42a.234.234 0 00.153.128c.069.016 2.423.008 2.423.008a.23.23 0 00.073-.281l-7.257-14.69h.002zm1.009 8.476c-.994.114-1.892.513-2.818.846-.869.276-1.4.378-2.337.326l3.165-7.231 2.662 5.998c-.224.012-.45.033-.672.062zM92.18 2.926l-1.945.118a.231.231 0 00-.195.227v6.313c-.7.06-1.228.141-1.863.32-.963.273-1.772.466-2.83.771-1.085.345-2.286.418-3.447.26V3.173a.223.223 0 00-.084-.176l-.093-.066-1.948.116a.23.23 0 00-.193.227v14.672c0 .069.03.133.081.176l.094.068 1.947-.053a.23.23 0 00.193-.228v-5.855c.262.066.525.124.795.172.977.178 2.035.134 3.054-.03.856-.154 1.69-.485 2.57-.454.097 0 .195.005.294.009.805.043 1.43.603 1.43 1.406v4.792c0 .068.029.132.08.175l.094.068 1.948.005a.23.23 0 00.193-.228V3.174l-.008-.114-.166-.13v-.004zM63.612-30.21c-4.67-5.194-11.829-6.728-18.251-1.006-6.42 5.722-5.279 12.622-.61 17.817 4.67 5.195 11.43 7.088 17.85 1.366 6.42-5.722 5.68-12.98 1.01-18.176zm-1.54-.441c.415.46.794.976 1.127 1.537-.395-.006-.368.012-.764.05-1.929.175-3.8.953-5.245 2.25-1.01.846-1.946 1.927-2.266 3.263a5.89 5.89 0 00-.15.978c-.562-.796-1.148-1.584-1.676-2.408-.509-.81-.974-1.702-1.147-2.613-.193-1.082.012-2.19.45-3.205a3.84 3.84 0 012.766-2.236l.017-.004c2.607-.52 4.774.03 6.89 2.386l-.001.002zM55.44-18.325c.067.33.111.663.134 1a1.826 1.826 0 01-.842 1.68c-2.198 1.368-4.895 1.16-7.065-.607-1.696-1.401-2.793-3.46-3.41-5.624a4.738 4.738 0 01.59-3.877l.012-.018c1.851 2.613 5.166 4.233 8.364 3.511.93 1.224 1.813 2.47 2.217 3.935zm-7.9-10.698c.808-.709 1.47-1.165 2.544-1.78-.214 1.205-.21 2.437.123 3.632.331 1.141.963 2.094 1.617 3.034.13.19.266.376.404.564-2.188.419-4.565-.707-5.9-2.44l-.007-.009c-.383-.532-.243-1.186.109-1.737.352-.55.588-.805 1.112-1.264h-.002zm-1.67 15.649c-1.836-2.044-3.123-4.62-2.72-7.872.216.531.443 1.061.694 1.587 1.947 4.293 5.9 7.855 10.815 6.464.136-.037.268-.083.4-.127-.174.613-.285.75-.538 1.35-.383.909-1.223 1.567-2.21 1.661-2.278.215-4.514-.92-6.44-3.065v.002zm14.577-1.057c-1.097.978-2.283 1.856-3.51 2.55.157-.922.337-2.044.404-3.61.049-1.153-.245-2.638-.66-3.768a10.017 10.017 0 01-.525-1.95c-.109-.723-.153-1.426-.031-2.077.406-2.02 2.739-3.96 4.682-4.65.038-.015.077-.027.115-.042 1.778-.613 3.677.53 4.01 2.373.62 3.435-.408 7.541-4.483 11.174h-.002z" fill="#FDE7D1"/></mask><g mask="url(#a)"><path fill="#FFF1DA" d="M-5-131h127V22H-5z"/></g></g><defs><clipPath id="clip0_2515_2843"><path fill="#fff" d="M0 0h112v22H0z"/></clipPath></defs></svg>