<svg width="16" height="15" fill="none" xmlns="http://www.w3.org/2000/svg"><path d="M11.12 4.209L4.709 10.62m0 0L2.305 8.216 1.102 9.418l.802.801m2.805.401l2.404 2.404-1.202 1.202-.802-.801m-3.205-3.206l-.802.802.802.801m0-1.603l3.205 3.206m0 0l-.801.801-.801-.801m0 0l-.802.801-1.603-1.602.802-.802m1.603 1.603l-1.603-1.603m8.815-10.418L9.918.603 8.716 1.805l4.808 4.808 1.202-1.202-.801-.801m-3.206-3.206l.802-.801.8.801m-1.602 0l3.206 3.206m0 0l.801-.802-.801-.801m0 0l.801-.801L13.123.603l-.801.801m1.603 1.603l-1.603-1.603" stroke="#1B1D25" stroke-width=".574" stroke-linecap="round" stroke-linejoin="round"/></svg>