<svg width="20" height="19" fill="none" xmlns="http://www.w3.org/2000/svg"><path d="M6.57 7.75V5.937m0-1.763v.805m0 0l-.579-.403m.579.403l.578-.403m-.578.403v.958m0 0c-.806-.068-2.188-.605-1.262-2.217-.088-.37-.158-1.138.263-1.26C5.378 1.975 5.308 1 6.57 1s1.157.974.946 1.46c.14.102.38.494.21 1.26.369.672.653 2.055-1.156 2.217zM3.093 16v-2.418m0-2.35v1.074m0 0l-.771-.537m.771.537l.771-.537m-.77.537v1.276m0 0c-1.076-.09-2.918-.806-1.684-2.955-.117-.493-.21-1.518.35-1.68C1.505 8.3 1.41 7 3.094 7c1.683 0 1.543 1.299 1.262 1.948.187.134.505.658.28 1.679.492.895.87 2.74-1.542 2.955zM13.57 7.75V5.937m0-1.763v.805m0 0l-.579-.403m.579.403l.578-.403m-.578.403v.958m0 0c-.806-.068-2.188-.605-1.262-2.217-.088-.37-.158-1.138.263-1.26-.193-.486-.263-1.46.999-1.46s1.157.974.947 1.46c.14.102.378.494.21 1.26.368.672.652 2.055-1.157 2.217zM17.093 16v-2.418m0-2.35v1.074m0 0l-.771-.537m.771.537l.771-.537m-.77.537v1.276m0 0c-1.076-.09-2.918-.806-1.684-2.955-.117-.493-.21-1.518.35-1.68C15.505 8.3 15.41 7 17.094 7c1.683 0 1.543 1.299 1.262 1.948.187.134.505.658.28 1.679.492.895.87 2.74-1.542 2.955zM14 18L11.037 6H9.852M6 18L8.667 6h1.185m0 0v1.429m0 1.142v1.715m0 1.143v2.285m0 1.429v2.571" stroke="#1B1D25" stroke-width=".579" stroke-linecap="round" stroke-linejoin="round"/></svg>