<svg width="14" height="18" fill="none" xmlns="http://www.w3.org/2000/svg"><path d="M2.275 15.834H10.5" stroke="#1B1D25" stroke-width=".6" stroke-linecap="round" stroke-linejoin="round"/><path d="M1.077 11.826h10.769a.778.778 0 010 1.554H1.077a.777.777 0 110-1.554z" stroke="#1B1D25" stroke-width=".6"/><path d="M11.308 13.68c-.808 2.289-.808 1.851-1.245 3.601M1.615 13.68c.539 1.975.573 1.851 1.01 3.601m1.313-3.675l.437 3.5m4.463-3.5l-.438 3.5" stroke="#1B1D25" stroke-width=".6" stroke-linecap="round" stroke-linejoin="round"/><circle cx="9.154" cy="5.065" r="4.546" stroke="#1B1D25" stroke-width=".6"/><path d="M11.638 1.296c-2.154.18-6.368 1.81-5.075 7.41m-.424-6.872c1.615.18 4.63 1.865 6.246 6.172" stroke="#1B1D25" stroke-width=".6" stroke-linecap="round" stroke-linejoin="round"/><path d="M8.615.757c0 .539.431 1.616 2.154 1.616 1.615 0 2.11.215 2.11.215m-8.033 1.4c.718-.36 2.369-.754 3.23.538 1.077 1.616.539 3.77 2.154 4.847" stroke="#1B1D25" stroke-width=".6" stroke-linecap="round" stroke-linejoin="round"/></svg>