<svg width="22" height="21" fill="none" xmlns="http://www.w3.org/2000/svg"><path d="M9.155 8.25V20M2.172 8.25V20M5.748 0v2.938M.999 19.944h20c-.12-1.2-.503-1.243-2.681-1.356l-8.007-7.555m0 1.92l7.374 7.006m-6.24-5.947v5.876m2.962-3.051v3.05m-12.29-5.932h7.038m-4.748.057v5.876m2.681-5.876v5.876m-2.737-4.464h2.681m-2.57 1.582h2.57m-2.57 1.582h2.57M5.748 2.825l4.528 4.91c.2.217.047.57-.245.57H1.338c-.295 0-.446-.357-.242-.573l4.652-4.907zm0-2.372h2.29c.185 0 .335.151.335.339v1.355c0 .188-.15.34-.335.34h-2.29V.453zm1.731 10.565c0 .967-.775 1.751-1.731 1.751a1.742 1.742 0 01-1.732-1.752c0-.967.775-1.751 1.732-1.751.956 0 1.731.784 1.731 1.752zm1.676-.848h.783c.185 0 .335.152.335.339v2.373c0 .187-.15.339-.335.339h-.783v-3.05z" stroke="#000" stroke-width=".5"/></svg>