<svg width="22" height="12" fill="none" xmlns="http://www.w3.org/2000/svg"><path d="M15.996 4.96l-.609-2.479c-.135-.55-.096-1.466.896-1.71.992-.242 1.45.551 1.584 1.102l.608 2.48M3.229 7.94l-.608-2.48c-.135-.551-.097-1.466.895-1.71.992-.242 1.45.55 1.585 1.102l.608 2.48M1 8.553l2.553-.6L8.234 6.85m0 0V4.724c0-.852.426-2.128 2.128-2.128 1.702 0 2.127 1.276 2.127 2.128V6m-4.255.851V9.83M12.489 6L21 3.872M12.49 6v3.83m0 0H8.233m4.255 0c1.362 0 1.702 1.418 1.702 1.702H6.957c0-.68.852-1.702 1.277-1.702" stroke="#1B1D25" stroke-width=".6" stroke-linecap="round" stroke-linejoin="round"/></svg>