<svg width="18" height="16" fill="none" xmlns="http://www.w3.org/2000/svg"><path d="M5.6 6.5c2.5.167 7.5 1.8 10.7 9M5.6 8c3.4 1 5.4 4 5.9 7.5" stroke="#1B1D25" stroke-width=".579" stroke-linecap="round" stroke-linejoin="round"/><path d="M3.416 14v-3.022m0-2.939v1.343m0 0l-.964-.671m.964.671l.964-.671m-.964.671v1.596m0 0C2.072 10.866-.23 9.97 1.313 7.284c-.146-.616-.263-1.898.438-2.1-.321-.81-.438-2.434 1.665-2.434 2.104 0 1.929 1.623 1.578 2.435.234.168.631.822.35 2.099.614 1.119 1.087 3.425-1.928 3.694zM15.37 10V8.12m0-1.829v.836m0 0l-.579-.418m.579.418l.578-.418m-.578.418v.992m0 0c-.807-.07-2.188-.626-1.262-2.298-.088-.383-.158-1.18.262-1.306-.192-.505-.262-1.515 1-1.515s1.157 1.01.946 1.515c.14.104.379.512.21 1.306.369.696.653 2.131-1.156 2.298zM10.37 7V5.388m0-1.567v.716m0 0l-.58-.357m.579.358l.578-.358m-.578.358v.851m0 0c-.807-.06-2.188-.537-1.262-1.97-.088-.328-.158-1.012.262-1.12C9.178 1.867 9.108 1 10.37 1s1.157.866.946 1.299c.14.09.379.438.21 1.119.369.597.653 1.827-1.156 1.97z" stroke="#1B1D25" stroke-width=".579" stroke-linecap="round" stroke-linejoin="round"/></svg>