<svg width="16" height="14" fill="none" xmlns="http://www.w3.org/2000/svg"><path d="M12.582 1.531c3.088 1.544 2.573 5.47 1.93 7.239l-2.896-1.677m.966-5.562c-3.089-1.544-6.113.644-7.239 1.93l2.5 1.448m4.739-3.378c-.907.161-3.124 1.062-4.738 3.378m4.738-3.378c.321.974.579 3.45-.966 5.562M7.845 4.91l2.102 1.217m1.67.967l-1.67-.967m0 0l-2.103 3.69m6.185 3.778c-.585-1.232-2.64-3.712-6.185-3.778m0 0C4.439 9.497 1.863 11.881 1 13.113" stroke="#1B1D25" stroke-width=".579" stroke-linecap="round" stroke-linejoin="round"/></svg>