<svg viewBox="0 0 1440 780" fill="none" xmlns="http://www.w3.org/2000/svg" xmlns:anim="http://www.w3.org/2000/anim" anim:transform-origin="50% 50%" anim:duration="6.5" anim:ease="ease-in-out"><g clip-path="url(#clip0_3897_10822)"><path fill="#637057" d="M0 0h1440v780H0z"/><g clip-path="url(#clip1_3897_10822)"><path opacity=".12" d="M1651.16 124.955c-180.2-183.466-445.82-228.116-672.337-6.89-226.44 221.222-173.075 473.304 7.119 656.77C1166.14 958.3 1417.66 1016.81 1644.1 795.591c226.44-221.222 187.25-487.094 7.06-670.636zm-57.29-13.726c16 16.276 30.78 34.607 43.94 54.702-14.55.424-13.52 1.07-28 3.106-70.58 9.636-138.08 41.36-189.03 91.489-35.68 32.83-68.29 74.135-77.85 123.862-2.38 12.182-3.61 24.234-3.92 36.246-21.94-28.391-44.79-56.434-65.54-85.878-20.04-28.938-38.6-61.019-46.5-94.272-8.87-39.515-3.16-80.609 11.24-118.711 16.33-43.187 53.03-75.602 97.94-86.851l.61-.181c94.94-23.422 175.49-6.82 257.18 76.407l-.07.081zm-223.35 464.646c3.01 12.016 5.17 24.223 6.58 36.542 2.88 24.558-7.74 49.184-28.15 63.254-78.53 53.984-177.98 50.769-260.62-10.652-64.65-48.772-108.38-122.711-134.664-201.357-15.953-47.811-10.212-100.135 15.278-143.657l.43-.712c72.346 93.108 196.836 147.263 313.136 115.419 36.2 43.516 70.73 87.875 88.01 141.163zm-308.04-380.669c28.53-27.432 52.09-45.335 90.54-69.753-5.85 44.715-3.66 90.068 10.56 133.496 14.04 41.436 38.86 75.466 64.43 109 5.08 6.77 10.39 13.376 15.78 20.055-79.72 19.045-168.91-18.47-220.88-80.041l-.24-.297c-14.96-18.938-10.89-43.27 1.12-64.114 12.02-20.844 20.29-30.599 38.77-48.35l-.08.004zm-35.41 578.701c-70.864-72.18-122.451-164.838-112.989-285.238 8.806 19.215 17.994 38.336 28.098 57.261 78.671 154.811 229.841 279.364 408.131 220.045 4.94-1.607 9.71-3.514 14.49-5.344-5.37 22.853-9.22 28.102-17.54 50.548-12.58 34.097-42.34 59.739-78.43 64.824-83.36 11.673-167.42-26.382-241.76-102.173v.077zm533.88-63.017c-38.7 37.811-80.8 72.083-124.74 99.67 4.24-34.183 9-75.773 8.87-133.524-.14-42.523-13.37-96.685-30.48-137.599-9.59-22.948-17.74-46.499-22.54-70.893-5.2-26.453-7.98-52.245-4.6-76.393 11.58-75.043 94.09-150.279 164.35-178.897 1.36-.6 2.8-1.126 4.17-1.726 64.31-25.505 135.99 13.414 151.28 80.712 28.46 125.384-2.52 278.208-146.24 418.647l-.07.003z" fill="url(#paint0_linear_3897_10822)"/><g anim:opacity="0[0:0.5:1:ease-in-out][0.5:0.9:0:ease-in-out][0.9:1.4:1:ease-in-out][4.9:5.3:0:ease-in-out][5.3:5.7:1:ease-in-out][5.7:6.1:0:ease-in-out]" anim:x="0[1.4:2.2:121:ease-in-out][2.2:3:0:ease-in-out][3:3.5:-76:ease-in-out][3.5:4:-161:ease-in-out][4:4.5:-200:ease-in-out]"><mask id="a" style="mask-type:luminance" maskUnits="userSpaceOnUse" x="593" y="288" width="65" height="66"><path d="M658 288h-65v65.666h65V288z" fill="#fff"/></mask><g mask="url(#a)"><path d="M657.497 294.366h-58.259v58.799" stroke="#FFF1DA" stroke-width="12.03"/></g></g><g anim:opacity="0[0:0.5:1:ease-in-out][0.5:0.9:0:ease-in-out][0.9:1.4:1:ease-in-out][4.9:5.3:0:ease-in-out][5.3:5.7:1:ease-in-out][5.7:6.1:0:ease-in-out]" anim:x="0[1.4:2.2:-133:ease-in-out][2.2:3:0:ease-in-out][3:3.5:76:ease-in-out][3.5:4:161:ease-in-out][4:4.5:200:ease-in-out]"><mask id="b" style="mask-type:luminance" maskUnits="userSpaceOnUse" x="777" y="288" width="65" height="66"><path d="M842 288h-65v65.768h65V288z" fill="#fff"/></mask><g mask="url(#b)"><path d="M777.504 294.376h58.349v58.89" stroke="#FFF1DA" stroke-width="12.049"/></g></g><g anim:opacity="0[0:0.5:1:ease-in-out][0.5:0.9:0:ease-in-out][0.9:1.4:1:ease-in-out][4.9:5.3:0:ease-in-out][5.3:5.7:1:ease-in-out][5.7:6.1:0:ease-in-out]" anim:x="0[1.4:2.2:121:ease-in-out][2.2:3:0:ease-in-out][3:3.5:-76:ease-in-out][3.5:4:-161:ease-in-out][4:4.5:-200:ease-in-out]"><mask id="c" style="mask-type:luminance" maskUnits="userSpaceOnUse" x="593" y="426" width="65" height="67"><path d="M658 426.779h-65v65.666h65v-65.666z" fill="#fff"/></mask><g mask="url(#c)"><path d="M657.497 486.08h-58.259v-58.799" stroke="#FFF1DA" stroke-width="12.03"/></g></g><g anim:opacity="0[0:0.5:1:ease-in-out][0.5:0.9:0:ease-in-out][0.9:1.4:1:ease-in-out][4.9:5.3:0:ease-in-out][5.3:5.7:1:ease-in-out][5.7:6.1:0:ease-in-out]" anim:x="0[1.4:2.2:-133:ease-in-out][2.2:3:0:ease-in-out][3:3.5:76:ease-in-out][3.5:4:161:ease-in-out][4:4.5:200:ease-in-out]"><mask id="d" style="mask-type:luminance" maskUnits="userSpaceOnUse" x="777" y="426" width="65" height="67"><path d="M842 426.779h-65v65.768h65v-65.768z" fill="#fff"/></mask><g mask="url(#d)"><path d="M777.504 486.172h58.349v-58.89" stroke="#FFF1DA" stroke-width="12.049"/></g></g><path d="M781.92 345.92L793.2 344v86.4l-11.28 1.8v-50.64c-17.76 0-33 7.56-50.76 7.56v41.28L720 432.2v-86.28l11.16-1.92v43.2c17.76 0 33-7.44 50.76-7.44v-33.84z" fill="#FFF1DA" anim:opacity="0[0:3:0:ease-in-out][3:3.5:1:ease-in-out]" anim:x="0[3:3.5:-10:ease-in-out][3.5:4:80:ease-in-out][4:4.5:120:ease-in-out]"/><path d="M772.44 380.12c10.2 3.24 17.76 10.68 17.76 24 0 19.56-19.92 28.08-41.4 28.08-22.56 0-31.8-9.72-31.8-9.72l2.4-4.92c7.8 7.92 18.36 12.48 29.4 12.84 19.08 0 28.2-14.04 28.2-26.28 0-16.2-10.44-24.48-22.68-24.48h-12.96v-1.8h15.36c9.84 0 16.56-5.28 16.56-15 0-12.24-12.84-16.92-26.88-16.92-7.32-.12-14.52 2.64-19.68 7.92l-2.4-4.92s6.72-4.92 24.48-4.92c19.08 0 35.76 4.08 35.76 18.84 0 11.04-6.12 15.6-12.12 17.28z" fill="#FFF1DA" anim:opacity="0[0:3:0:ease-in-out][3:3.5:1:ease-in-out]" anim:x="0[3:3.5:-84:ease-in-out][3.5:4:-160:ease-in-out][4:4.5:-207:ease-in-out]"/><path d="M757 344c24.36 0 45 13.2 45 43.2 0 30-20.64 45-45 45s-45-15-45-45 20.64-43.2 45-43.2zm3.72 86.4c22.56 0 30-22.56 30-43.2 0-30-20.64-41.28-37.44-41.28-22.56 0-30.12 20.64-30.12 41.28 0 30 20.64 43.2 37.56 43.2z" fill="#FFF1DA" anim:opacity="0[0:2.4:0:ease-in-out][2.4:3:1:ease-in-out]" anim:x="0[2.2:3:-6:ease-in-out][3:3.5:90:ease-in-out][3.5:4:175:ease-in-out][4:4.5:218:ease-in-out]"/><path d="M720 343c24.36 0 45 13.2 45 43.2 0 30-20.64 45-45 45s-45-15-45-45 20.64-43.2 45-43.2zm3.72 86.4c22.56 0 30-22.56 30-43.2 0-30-20.64-41.28-37.44-41.28-22.56 0-30.12 20.64-30.12 41.28 0 30 20.64 43.2 37.56 43.2z" fill="#FFF1DA" anim:opacity="1[0:1.2:1:ease-in-out][1.2:2.4:0:ease-in-out][2.4:3:1:ease-in-out]" anim:x="0[2.2:3:-20:ease-in-out][3:3.5:-130:ease-in-out][3.5:4:-215:ease-in-out][4:4.5:-258:ease-in-out]"/><path d="M743.12 432.68l-13.68-30.12c-16.08.72-30.36 7.08-46.68 7.44l-10.08 22.68-1.68-.72 35.52-79.92-.48-1.2 1.56-1.2 7.68-5.64 37.08 81.84-9.24 6.84zm-59.52-24.6c15.72-.48 29.52-6.48 45-7.32l-21-46.44-24 53.76z" fill="#FFF1DA" anim:opacity="0[0:4:0:ease-in-out][4:4.5:1:ease-in-out]" anim:x="0[4:4.5:-85:ease-in-out]"/><path d="M781.92 345.92L793.2 344v86.4l-11.28 1.8v-67.32l-50.76 65.16v.36L720 432.2v-86.28l11.16-1.92v83.04l50.76-65.28v-15.84z" fill="#FFF1DA" anim:opacity="0[0:4:0:ease-in-out][4:4.5:1:ease-in-out]" anim:x="0[4:4.5:33:ease-in-out]"/><path d="M748.36 344c14.64 0 30 7.56 30 22.56s-15 22.56-28.08 22.56h-30.12v41.28L709 432.2v-86.28l11.16-1.92h28.2zm1.92 43.2c13.08 0 16.8-11.04 16.8-20.64.12-5.52-2.16-10.68-6-14.64-3.84-3.84-9.12-6-14.64-6h-26.28v41.28h30.12z" fill="#FFF1DA" anim:opacity="0[0:2:0:ease-in-out][2:4.5:0:ease-in-out][4.5:5:1:ease-in-out]" anim:x="0[4.5:5:-38:ease-in-out]"/></g></g><defs><clipPath id="clip0_3897_10822"><path fill="#fff" d="M0 0h1440v780H0z"/></clipPath><clipPath id="clip1_3897_10822"><path fill="#fff" d="M0 0h1440v780H0z"/></clipPath><linearGradient id="paint0_linear_3897_10822" x1="1324.06" y1="453.594" x2="917.864" y2="636.861" gradientUnits="userSpaceOnUse"><stop stop-color="#DFE4DB"/><stop offset="1" stop-color="#DFE4DB" stop-opacity="0"/></linearGradient></defs></svg>