<svg width="50" height="50" fill="none" xmlns="http://www.w3.org/2000/svg"><path fill-rule="evenodd" clip-rule="evenodd" d="M3.515 3.515C.105 6.925.003 12.35 0 23c9.544 0 15.503-4.098 20.73-7.692C24.813 12.5 28.45 10 33 10c6.773 0 12.686 4.788 15.822 7.328.442.358.829.671 1.155.92-.098-7.593-.631-11.873-3.492-14.733C42.971 0 37.314 0 26 0h-2C12.686 0 7.03 0 3.515 3.515zM22.53 50h4.94-4.94z" fill="#07F"/><path fill-rule="evenodd" clip-rule="evenodd" d="M0 23c9.544 0 15.503-4.098 20.73-7.692C24.813 12.5 28.45 10 33 10c6.773 0 12.686 4.789 15.822 7.328.442.358.829.671 1.155.92C50 19.984 50 21.894 50 24v2c0 11.314 0 16.97-3.515 20.485-3.359 3.36-8.675 3.508-19.015 3.515h-4.94c-10.34-.007-15.656-.156-19.015-3.515C0 42.971 0 37.314 0 26v-3z" fill="#F45FFF"/><path d="M38.75 25.488A2.248 2.248 0 0141 23.25a2.248 2.248 0 012.25 2.238v9.025A2.248 2.248 0 0141 36.75a2.248 2.248 0 01-2.25-2.237v-9.025zm-8-5.75A2.248 2.248 0 0133 17.5a2.248 2.248 0 012.25 2.238v20.525A2.248 2.248 0 0133 42.5a2.248 2.248 0 01-2.25-2.237V19.738zm-8 5.75A2.248 2.248 0 0125 23.25a2.248 2.248 0 012.25 2.238v9.025A2.248 2.248 0 0125 36.75a2.248 2.248 0 01-2.25-2.237v-9.025zm-8 3.25A2.248 2.248 0 0117 26.5a2.248 2.248 0 012.25 2.238v2.524A2.248 2.248 0 0117 33.5a2.248 2.248 0 01-2.25-2.238v-2.524zm-8 0A2.248 2.248 0 019 26.5a2.248 2.248 0 012.25 2.238v2.524A2.248 2.248 0 019 33.5a2.248 2.248 0 01-2.25-2.238v-2.524z" fill="#fff"/></svg>