<svg width="16" height="10" fill="none" xmlns="http://www.w3.org/2000/svg"><path d="M15.587.918c.11-.369 0-.64-.525-.64h-1.739c-.443 0-.646.233-.755.493 0 0-.886 2.157-2.137 3.556-.404.404-.59.534-.812.534-.109 0-.277-.13-.277-.499V.918c0-.442-.124-.64-.49-.64H6.119c-.278 0-.443.206-.443.398 0 .42.626.517.69 1.697v2.562c0 .56-.1.664-.32.664-.591 0-2.026-2.166-2.876-4.645C3 .473 2.831.278 2.385.278H.647C.151.278.051.51.051.77c0 .46.59 2.747 2.748 5.77C4.236 8.604 6.26 9.722 8.102 9.722c1.107 0 1.243-.248 1.243-.676 0-1.971-.1-2.157.454-2.157.257 0 .7.13 1.733 1.124 1.18 1.18 1.375 1.71 2.036 1.71h1.739c.495 0 .746-.249.602-.739-.331-1.03-2.565-3.149-2.666-3.29-.256-.331-.183-.479 0-.774.003-.003 2.125-2.99 2.344-4.002z" fill="#FFF1DA"/></svg>