<svg width="50" height="50" fill="none" xmlns="http://www.w3.org/2000/svg"><rect width="50" height="50" rx="11.5" fill="#1D1A1A"/><g clip-path="url(#clip0_3064_10598)"><path d="M46.458 19.802l-.17-.849-7.214-1.26 4.191-5.67-.487-.534-6.166 2.957.78-7.853-.634-.363-3.753 6.35-4.215-9.452h-.732l1 9.137-10.601-8.483-.902.267L25.72 14.3 9.562 8.92l-.731.824 14.427 8.216-19.91 1.648-.22 1.236 20.69 2.253L6.564 37.373l.731.993L27.84 27.193l-4.07 19.68h1.244l7.871-18.516 4.8 14.492.854-.654-1.974-14.735 7.481 8.482.488-.775-5.727-10.519 7.993 2.957.073-.896-7.164-5.284 6.75-1.623z" fill="#FED42B"/></g><defs><clipPath id="clip0_3064_10598"><path fill="#fff" transform="translate(3 3)" d="M0 0h44v44H0z"/></clipPath></defs></svg>