<svg width="16" height="14" fill="none" xmlns="http://www.w3.org/2000/svg"><path fill-rule="evenodd" clip-rule="evenodd" d="M8 .6c.684 0 1.386.018 2.066.046l.803.039.769.045.72.05.657.05a3.04 3.04 0 012.795 2.74l.032.34.06.728C15.958 5.39 16 6.214 16 7s-.042 1.609-.098 2.363l-.06.728-.032.34a3.04 3.04 0 01-2.796 2.739l-.656.05-.72.05-.77.045-.802.039c-.689.03-1.377.045-2.066.046a49.573 49.573 0 01-2.066-.046l-.803-.039-.769-.045-.72-.05-.657-.05A3.04 3.04 0 01.19 10.43l-.032-.34-.06-.728A32.8 32.8 0 010 7c0-.786.042-1.609.098-2.363l.06-.728.032-.34A3.04 3.04 0 012.984.83l.657-.05.72-.05.77-.045.803-.039C6.622.616 7.31.601 8 .6zM6.4 5.06v3.88c0 .37.4.6.72.416l3.36-1.94a.48.48 0 000-.832l-3.36-1.94a.48.48 0 00-.72.417V5.06z" fill="#FFF1DA"/></svg>